<svg width="36" height="36" viewBox="0 0 36 36" fill="none" xmlns="http://www.w3.org/2000/svg">
<path d="M25.5 24C26.3284 24 27 23.3284 27 22.5C27 21.6716 26.3284 21 25.5 21C24.6716 21 24 21.6716 24 22.5C24 23.3284 24.6716 24 25.5 24Z" fill="white"/>
<path fill-rule="evenodd" clip-rule="evenodd" d="M9 4.5C9 3.67157 9.67157 3 10.5 3C11.3284 3 12 3.67157 12 4.5V6H24V4.5C24 3.67157 24.6716 3 25.5 3C26.3284 3 27 3.67157 27 4.5V6H28.5C30.9853 6 33 8.01472 33 10.5V25.5C33 27.9853 30.9853 30 28.5 30H7.5C5.01472 30 3 27.9853 3 25.5V10.5C3 8.01472 5.01472 6 7.5 6H9V4.5ZM6 25.5V15H30V25.5C30 26.3284 29.3284 27 28.5 27H7.5C6.67157 27 6 26.3284 6 25.5Z" fill="white"/>
</svg>
