<svg width="14" height="14" viewBox="0 0 14 14" fill="none" xmlns="http://www.w3.org/2000/svg">
<path d="M6.99998 9.08541C6.9222 9.08541 6.84929 9.07336 6.78123 9.04925C6.71318 9.02514 6.64998 8.98372 6.59165 8.925L4.49165 6.825C4.3847 6.71805 4.33123 6.58194 4.33123 6.41666C4.33123 6.25139 4.3847 6.11527 4.49165 6.00833C4.59859 5.90139 4.73723 5.84558 4.90756 5.84091C5.0779 5.83625 5.21634 5.88719 5.3229 5.99375L6.41665 7.0875V2.91666C6.41665 2.75139 6.47265 2.61275 6.58465 2.50075C6.69665 2.38875 6.83509 2.33294 6.99998 2.33333C7.16526 2.33333 7.3039 2.38933 7.4159 2.50133C7.5279 2.61333 7.5837 2.75177 7.58331 2.91666V7.0875L8.67706 5.99375C8.78401 5.8868 8.92265 5.83566 9.09298 5.84033C9.26331 5.845 9.40176 5.901 9.50831 6.00833C9.61526 6.11527 9.66873 6.25139 9.66873 6.41666C9.66873 6.58194 9.61526 6.71805 9.50831 6.825L7.40831 8.925C7.34998 8.98333 7.28679 9.02475 7.21873 9.04925C7.15068 9.07375 7.07776 9.0858 6.99998 9.08541ZM3.49998 11.6667C3.17915 11.6667 2.9044 11.5523 2.67573 11.3237C2.44706 11.095 2.33293 10.8204 2.33331 10.5V9.33333C2.33331 9.16805 2.38931 9.02941 2.50131 8.91741C2.61331 8.80541 2.75176 8.74961 2.91665 8.75C3.08193 8.75 3.22056 8.806 3.33256 8.918C3.44456 9.03 3.50037 9.16844 3.49998 9.33333V10.5H10.5V9.33333C10.5 9.16805 10.556 9.02941 10.668 8.91741C10.78 8.80541 10.9184 8.74961 11.0833 8.75C11.2486 8.75 11.3872 8.806 11.4992 8.918C11.6112 9.03 11.667 9.16844 11.6666 9.33333V10.5C11.6666 10.8208 11.5523 11.0956 11.3236 11.3242C11.095 11.5529 10.8204 11.6671 10.5 11.6667H3.49998Z" fill="white"/>
</svg>
